<svg width="80" height="80" viewBox="0 0 80 80" fill="none" xmlns="http://www.w3.org/2000/svg">
<g clip-path="url(#clip0)">
<path d="M49.0484 32.5688L37.0284 43.9219L31.2596 37.9871C30.6201 37.3287 29.567 37.3138 28.9093 37.9533C28.2509 38.5935 28.2359 39.6459 28.8754 40.3043L35.7943 47.4067C36.437 48.0534 37.4758 48.0756 38.1452 47.4562L51.3662 34.9862C51.6872 34.6834 51.8748 34.2653 51.8872 33.8244C51.8995 33.3835 51.7361 32.9556 51.4326 32.6352C50.7892 31.9664 49.7283 31.9371 49.0484 32.5688Z" fill="#3F88C5"/>
<path d="M40.129 15.0965C26.3916 15.0965 15.2214 26.2667 15.2214 40.004C15.2214 53.742 26.3916 64.9122 40.129 64.9122C53.867 64.9122 65.0371 53.742 65.0371 40.004C65.0371 26.2667 53.867 15.0965 40.129 15.0965ZM40.129 61.5778C28.2255 61.5778 18.5558 51.8912 18.5558 40.004C18.5558 28.1168 28.2255 18.4309 40.129 18.4309C52.0441 18.4309 61.7028 28.0895 61.7028 40.004C61.7028 51.9186 52.0441 61.5778 40.129 61.5778Z" fill="#3F88C5"/>
<path d="M74.4066 30.8345L74.9569 20.9479C74.9953 20.2843 74.6345 19.6611 74.04 19.3641L65.2371 14.9128L60.7858 6.10996C60.483 5.52059 59.8636 5.16175 59.202 5.19301L49.2985 5.72703L41.0459 0.274805C40.4897 -0.0918459 39.7688 -0.0918459 39.212 0.274805L30.9594 5.72703L21.0735 5.17673C20.4092 5.13765 19.7866 5.49844 19.4897 6.09368L15.0378 14.8966L6.23553 19.3478C5.6455 19.65 5.28732 20.2693 5.31858 20.9317L5.86823 30.8182L0.416651 39.0708C0.0499998 39.6269 0.0499998 40.3479 0.416651 40.9047L5.85195 49.1736L5.30164 59.0601C5.26322 59.7237 5.62336 60.347 6.2186 60.6439L15.0215 65.0952L19.4727 73.8981C19.7749 74.4881 20.3943 74.8463 21.0566 74.815L30.9431 74.2647L39.1957 79.7163C39.7486 80.0947 40.4767 80.0947 41.0296 79.7163L49.2822 74.2647L59.1688 74.815C59.8324 74.8535 60.455 74.4927 60.7526 73.8981L65.2039 65.0952L74.0067 60.6439C74.5961 60.3411 74.955 59.7224 74.9237 59.0601L74.3734 49.1736L79.825 40.921C80.1916 40.3648 80.1916 39.6432 79.825 39.0871L74.4066 30.8345ZM71.3054 47.8066C71.1022 48.1049 71.0078 48.4637 71.039 48.8238L71.5555 58.1764L63.2364 62.3776C62.9193 62.5365 62.662 62.7943 62.5031 63.1115L58.3013 71.4305L48.9488 70.9141C48.5906 70.901 48.237 70.9935 47.9315 71.1804L40.129 76.3324L32.327 71.1804C32.0561 70.9974 31.737 70.8984 31.4101 70.8971H31.3267L21.9735 71.4142L17.7723 63.0946C17.6134 62.7774 17.3562 62.5202 17.0384 62.3613L8.70245 58.1764L9.21954 48.8238C9.23256 48.4656 9.13943 48.112 8.95253 47.8066L3.80117 40.004L8.95253 32.2015C9.15637 31.9038 9.2508 31.5443 9.21954 31.1849L8.70245 21.8317L17.0221 17.6305C17.3393 17.4716 17.5965 17.2143 17.7554 16.8972L21.9566 8.57753L31.3098 9.09462C31.6673 9.10699 32.0209 9.01452 32.327 8.82761L40.129 3.67626L47.9315 8.82761C48.2298 9.03145 48.5893 9.12588 48.9488 9.09462L58.3013 8.57753L62.5031 16.8972C62.662 17.2143 62.9193 17.4716 63.2364 17.6305L71.5555 21.8317L71.039 31.1849C71.026 31.5424 71.1191 31.896 71.3054 32.2015L76.4574 40.004L71.3054 47.8066Z" fill="#3F88C5"/>
</g>
<defs>
<clipPath id="clip0">
<rect width="80" height="80" fill="white"/>
</clipPath>
</defs>
</svg>
