<svg width="80" height="80" viewBox="0 0 80 80" fill="none" xmlns="http://www.w3.org/2000/svg">
<g clip-path="url(#clip0)">
<path d="M76.3289 12.2455L62.4067 6.44532C60.8795 5.80922 59.128 5.80938 57.6009 6.44547L50.9166 9.22969C50.3191 9.47875 50.0364 10.1647 50.2853 10.7622C50.5342 11.3597 51.2202 11.6425 51.8178 11.3934L58.5022 8.60906C59.4561 8.21156 60.5509 8.21141 61.5056 8.60891L75.427 14.4088C76.7811 14.9736 77.6563 16.2438 77.6563 17.6442V67.7614C77.6563 69.7103 75.9824 71.2958 73.925 71.2958H72.025C71.3777 71.2958 70.8531 71.8203 70.8531 72.4677C70.8531 73.115 71.3777 73.6395 72.025 73.6395H73.925C77.2747 73.6395 80 71.0027 80 67.7614V17.6442C80 15.2948 78.5591 13.1758 76.3289 12.2455Z" fill="#3F88C5"/>
<path d="M66.9172 71.296H47.2266C48.0373 70.3744 48.4813 69.2052 48.4813 67.9678C48.4813 66.733 48.0342 65.6013 47.2945 64.7238C47.7609 64.4858 48.1928 64.1744 48.5741 63.7933C49.5259 62.8413 50.05 61.5755 50.05 60.2288C50.05 58.945 49.5669 57.7725 48.7739 56.8816C49.1666 56.6592 49.5322 56.3836 49.8597 56.0558C50.8116 55.1041 51.3358 53.8383 51.3358 52.4913C51.3358 51.2113 50.8556 50.0417 50.0672 49.1516C50.4664 48.9275 50.8383 48.6485 51.1717 48.3158C52.123 47.3624 52.6467 46.0969 52.6467 44.752C52.6467 41.9717 50.3855 39.7099 47.6059 39.7099H42.3512V17.6442C42.3512 16.2436 43.2264 14.9735 44.5798 14.4089L46.7113 13.5214C47.3088 13.2727 47.5914 12.5867 47.3427 11.9891C47.0938 11.3916 46.4078 11.1085 45.8103 11.3577L43.6781 12.2455C41.4483 13.1756 40.0075 15.2949 40.0075 17.6442V39.71H35.1111C36.7416 34.5575 36.6028 29.1802 34.7 22.9391C34.4109 21.9939 33.8359 21.1844 33.0367 20.598C32.2422 20.0152 31.3006 19.7069 30.3136 19.7069C29.042 19.7069 27.8597 20.2147 26.9841 21.1367C26.1089 22.0586 25.6633 23.2655 25.7292 24.5349C26.0956 31.5813 22.8453 34.0066 18.3467 37.3636C16.8656 38.4688 15.2469 39.6775 13.6559 41.1599V39.6239C13.6559 38.9766 13.1314 38.452 12.4841 38.452H1.17188C0.524531 38.452 0 38.9766 0 39.6239V72.8599C0 73.5072 0.524531 74.0317 1.17188 74.0317H12.4844C13.1317 74.0317 13.6562 73.5072 13.6562 72.8599V69.9117C15.882 70.1235 17.5077 70.5671 19.087 71.7775C20.1239 72.5722 21.402 73.0099 22.6859 73.0099H43.3533C44.1977 73.4214 45.1337 73.6395 46.0827 73.6395H66.917C67.5644 73.6395 68.0889 73.115 68.0889 72.4677C68.0889 71.8203 67.5644 71.296 66.9172 71.296ZM20.5128 69.9172C18.3031 68.2239 15.9416 67.7535 13.6562 67.5561V53.8725C13.6562 53.2252 13.1317 52.7006 12.4844 52.7006C11.837 52.7006 11.3125 53.2252 11.3125 53.8725V71.6881H2.34375V40.796H11.3125V48.7664C11.3125 49.4138 11.837 49.9383 12.4844 49.9383C13.1317 49.9383 13.6562 49.4138 13.6562 48.7664V44.4891C15.6166 42.3258 17.7156 40.7594 19.7487 39.2422C24.2502 35.8833 28.5017 32.7105 28.0703 24.4133C28.038 23.7922 28.2559 23.2017 28.6844 22.7506C29.1128 22.2992 29.6916 22.0508 30.3141 22.0508C30.7989 22.0508 31.2609 22.2019 31.6505 22.4878C32.0394 22.7731 32.3189 23.1663 32.4589 23.6239C34.3969 29.981 34.3666 35.3294 32.3634 40.4558C32.2225 40.8164 32.2689 41.2233 32.4872 41.5431C32.7055 41.863 33.0677 42.0542 33.4548 42.0542H47.6062C49.0934 42.0542 50.3033 43.2647 50.3033 44.7527C50.3033 45.4722 50.0225 46.1499 49.5145 46.6591C49.0036 47.1688 48.3261 47.4495 47.6062 47.4495H42.7922C42.1448 47.4495 41.6203 47.9741 41.6203 48.6214C41.6203 49.2688 42.1448 49.7933 42.7922 49.7933H46.2953C47.7823 49.7933 48.9922 51.0038 48.9922 52.4919C48.9922 53.2127 48.7119 53.89 48.2025 54.3992C47.6934 54.9085 47.0161 55.1888 46.2953 55.1888H42.7922C42.1448 55.1888 41.6203 55.7133 41.6203 56.3606C41.6203 57.008 42.1448 57.5325 42.7922 57.5325H45.0092C46.4964 57.5325 47.7063 58.7424 47.7063 60.2294C47.7063 60.95 47.4258 61.6275 46.9167 62.1367C46.4064 62.647 45.7289 62.9278 45.0092 62.9278H43.4405H41.5061C40.8587 62.9278 40.3342 63.4524 40.3342 64.0997C40.3342 64.7471 40.8587 65.2716 41.5061 65.2716H43.4405C44.9277 65.2716 46.1375 66.4814 46.1375 67.9685C46.1375 68.6891 45.8567 69.3672 45.3489 69.8763C44.873 70.3511 44.1211 70.6541 43.5584 70.6641C43.5195 70.6647 22.6859 70.6669 22.6859 70.6669C21.9147 70.6661 21.1428 70.4002 20.5128 69.9172Z" fill="#3F88C5"/>
<path d="M64.2331 18.1649C64.2331 15.7024 62.2297 13.6989 59.7672 13.6989C57.3047 13.6989 55.3013 15.7024 55.3013 18.1649C55.3013 20.6274 57.3047 22.6308 59.7672 22.6308C62.2297 22.6308 64.2331 20.6274 64.2331 18.1649ZM57.645 18.1649C57.645 16.9947 58.597 16.0427 59.7672 16.0427C60.9373 16.0427 61.8894 16.9947 61.8894 18.1649C61.8894 19.335 60.9373 20.287 59.7672 20.287C58.597 20.287 57.645 19.3352 57.645 18.1649Z" fill="#3F88C5"/>
</g>
<defs>
<clipPath id="clip0">
<rect width="80" height="80" fill="white"/>
</clipPath>
</defs>
</svg>
