<svg width="80" height="80" viewBox="0 0 80 80" fill="none" xmlns="http://www.w3.org/2000/svg">
<g clip-path="url(#clip0)">
<path d="M65.1048 50.4337C64.3787 50.4337 63.7895 49.8452 63.7895 49.1184V48.618C63.7895 47.0807 61.5961 45.5727 59.3612 45.5727H53.9841C53.258 45.5727 52.6696 44.9851 52.6696 44.2582C52.6696 43.5313 53.258 42.9429 53.9841 42.9429H59.3612C62.6999 42.9429 66.4194 45.274 66.4194 48.618V49.1184C66.4194 49.8452 65.8309 50.4337 65.1048 50.4337Z" fill="#3F88C5"/>
<path d="M59.8458 34.3949C59.8097 34.3949 59.7736 34.3941 59.7375 34.3911C59.0129 34.3309 58.4741 33.6966 58.5343 32.9727L59.192 24.9462C59.1867 20.4156 55.6832 16.642 51.3768 16.642H44.6423C40.3352 16.642 36.8317 20.4156 36.8317 25.0538L37.4841 32.9727C37.5443 33.6966 37.0055 34.3309 36.2809 34.3911C35.5615 34.4505 34.9234 33.9125 34.8632 33.1879L34.2063 25.1614C34.2018 18.9656 38.8852 14.0121 44.6423 14.0121H51.3761C57.134 14.0121 61.8173 18.9656 61.8173 25.0538L61.1551 33.1879C61.0987 33.8749 60.5238 34.3949 59.8458 34.3949Z" fill="#3F88C5"/>
<path d="M48.0095 46.8881C46.4504 46.8881 44.8793 46.6375 43.4654 46.1627C42.7769 45.9317 42.4059 45.1853 42.6377 44.4968C42.8695 43.809 43.6144 43.4403 44.3021 43.6683C45.4497 44.0536 46.7311 44.2582 48.0088 44.2582C50.9893 44.2582 53.7471 43.1792 55.2054 41.4417C57.1934 39.0715 58.529 35.6884 58.529 33.0247V27.725C58.529 27.0343 58.3875 26.573 58.1091 26.3578C57.1181 25.5858 53.9691 26.3857 51.191 27.0907C48.6514 27.7356 46.0268 28.403 43.6483 28.403C40.6888 28.403 38.6963 27.3383 37.5036 26.6061C37.4946 26.9003 37.4893 27.2668 37.4893 27.725V33.0247C37.4893 34.9434 38.2042 37.331 39.4021 39.4108C39.7648 40.0407 39.5481 40.8443 38.919 41.2062C38.2892 41.5697 37.4856 41.3537 37.1229 40.7231C35.6842 38.2242 34.8587 35.4183 34.8587 33.0247V27.725C34.8587 25.4887 34.9091 24.196 35.9498 23.6219C36.8776 23.1019 37.7557 23.6602 38.5292 24.1456C39.5571 24.7942 41.1109 25.7732 43.6483 25.7732C45.6972 25.7732 48.1608 25.1463 50.5431 24.5414C54.3935 23.5639 57.7156 22.7181 59.7239 24.281C60.6765 25.0214 61.1589 26.1802 61.1589 27.725V33.0247C61.1589 36.3114 59.6133 40.2777 57.2197 43.1318C55.2468 45.484 51.8027 46.8881 48.0095 46.8881Z" fill="#3F88C5"/>
<path d="M60.0099 63.1767C59.4086 63.1767 58.8654 62.7606 58.7284 62.1496C58.5697 61.4407 59.0159 60.7372 59.7247 60.5792L75.3308 57.0847C75.9102 56.9824 76.3632 56.6942 76.6657 56.263C76.9682 55.8319 77.0848 55.3089 76.9938 54.7897C76.8734 54.1004 76.3895 53.521 75.7334 53.2772C75.0517 53.0252 74.704 52.2689 74.9568 51.5872C75.2097 50.9062 75.9689 50.5556 76.6461 50.8114C78.1766 51.378 79.3031 52.7287 79.5845 54.3352C79.7975 55.5467 79.5251 56.7672 78.8185 57.7732C78.1127 58.78 77.0562 59.4505 75.8448 59.6634L60.2988 63.1451C60.2025 63.1661 60.1054 63.1767 60.0099 63.1767Z" fill="#3F88C5"/>
<path d="M42.2186 70.5584H32.2288C32.1333 70.5584 32.0377 70.5486 31.9437 70.5275L20.1089 67.8977C19.4001 67.7397 18.9523 67.0369 19.1104 66.3288C19.2676 65.62 19.9689 65.1775 20.6785 65.3295L32.3733 67.9285H42.2186C47.3504 67.9285 52.3844 66.1625 56.3928 62.9562C56.4281 62.9276 56.465 62.9021 56.5026 62.878L75.9667 50.3622C76.0299 50.3208 76.0961 50.2862 76.1646 50.2569C76.6499 50.0514 77.0254 49.6684 77.2233 49.1808C77.4212 48.6917 77.4159 48.1545 77.2105 47.6706C76.7853 46.6684 75.625 46.1996 74.6243 46.6247L55.0857 54.6799C54.927 54.7453 54.7562 54.7784 54.5846 54.7784H29.599C29.1249 54.7784 28.6877 54.5241 28.4545 54.1117C28.2212 53.6986 28.228 53.1922 28.4718 52.7867L32.417 46.2116C32.654 45.8166 33.0821 45.5735 33.5442 45.5735H38.8046C41.2509 45.5735 43.3127 43.8955 43.8981 41.6283H30.0294L12.0906 54.7845C11.5037 55.2141 10.6828 55.0847 10.2523 54.5015C9.82344 53.9161 9.94985 53.0929 10.5353 52.6625L28.8217 39.2528C29.0467 39.0873 29.3191 38.9985 29.599 38.9985H45.3789C46.1051 38.9985 46.6942 39.5869 46.6942 40.3138C46.6942 44.6645 43.1546 48.2041 38.8039 48.2041H34.2891L31.9218 52.1493H54.3242L73.6099 44.1988C75.9343 43.2108 78.6409 44.3079 79.6319 46.6435C80.112 47.7752 80.1233 49.0258 79.662 50.1666C79.2166 51.2697 78.3813 52.1403 77.3038 52.6309L57.9827 65.0541C53.5176 68.6035 47.923 70.5584 42.2186 70.5584Z" fill="#3F88C5"/>
<path d="M14.2284 78.0003C14.1584 78.0003 14.0877 77.995 14.0177 77.9837C13.6731 77.9273 13.3653 77.7369 13.1614 77.4547L0.249075 59.5423C0.0444047 59.2601 -0.039119 58.9064 0.0173159 58.5626C0.0729983 58.2187 0.263372 57.9109 0.546299 57.7062L9.07926 51.5548C9.66994 51.135 10.4909 51.2644 10.9153 51.8528L23.8276 69.7638C24.2527 70.3529 24.1195 71.1746 23.5304 71.5998L14.9974 77.7527C14.7724 77.9145 14.5023 78.0003 14.2284 78.0003ZM3.15133 59.0712L14.5264 74.8489L20.9261 70.2348L9.55105 54.4571L3.15133 59.0712Z" fill="#3F88C5"/>
<path d="M17.7635 69.2438C17.7635 70.696 16.5858 71.8737 15.1336 71.8737C13.6813 71.8737 12.5037 70.696 12.5037 69.2438C12.5037 67.7908 13.6813 66.6132 15.1336 66.6132C16.5858 66.6132 17.7635 67.7908 17.7635 69.2438Z" fill="#3F88C5"/>
<path d="M48.0095 10.067C47.2826 10.067 46.6942 9.47929 46.6942 8.75241V3.49192C46.6942 2.76504 47.2826 2.17737 48.0095 2.17737C48.7357 2.17737 49.3241 2.76504 49.3241 3.49192V8.75241C49.3241 9.47929 48.7357 10.067 48.0095 10.067Z" fill="#3F88C5"/>
<path d="M53.2693 10.0669C52.9329 10.0669 52.5966 9.939 52.34 9.68165C51.826 9.16847 51.826 8.33625 52.34 7.82231L56.9421 3.21948C57.456 2.7063 58.2882 2.7063 58.8014 3.21948C59.3153 3.73341 59.3153 4.56564 58.8014 5.07958L54.1993 9.68165C53.942 9.939 53.6064 10.0669 53.2693 10.0669Z" fill="#3F88C5"/>
<path d="M42.7491 10.0669C42.4127 10.0669 42.0764 9.939 41.8198 9.68165L37.8746 5.73648C37.3607 5.2233 37.3607 4.39107 37.8746 3.87713C38.3878 3.36395 39.22 3.36395 39.7339 3.87713L43.6791 7.82231C44.1923 8.33624 44.1923 9.16847 43.6791 9.68165C43.4218 9.939 43.0854 10.0669 42.7491 10.0669Z" fill="#3F88C5"/>
</g>
<defs>
<clipPath id="clip0">
<rect width="80" height="80" fill="white"/>
</clipPath>
</defs>
</svg>
