<svg width="80" height="80" viewBox="0 0 80 80" fill="none" xmlns="http://www.w3.org/2000/svg">
<path d="M27.2728 77.6569C28.0922 77.648 28.8363 77.347 29.4164 76.7667C29.9702 76.2131 30.3113 75.4556 30.3113 74.623V70.145H20.2483C19.6014 70.145 19.0744 69.6223 19.0744 68.9712C19.0744 68.3245 19.6014 67.802 20.2483 67.802H30.3113V54.6695H4.87425V67.802H14.9375C15.5842 67.802 16.1113 68.3247 16.1113 68.9712C16.1113 69.6223 15.5842 70.145 14.9375 70.145H4.87425V74.623C4.87425 75.4556 5.21534 76.2131 5.76893 76.7667C6.31831 77.3161 7.08018 77.6569 7.913 77.6569H27.2728ZM11.4428 59.1473C10.8625 59.1473 10.3399 59.3777 9.96346 59.7588C9.58253 60.1352 9.34784 60.6578 9.34784 61.238C9.34784 61.8138 9.58268 62.3364 9.96346 62.7128C10.3399 63.0938 10.8625 63.3284 11.4428 63.3284C12.0186 63.3284 12.5411 63.0936 12.9177 62.7128C13.2986 62.3364 13.5332 61.8138 13.5332 61.238C13.5332 60.6578 13.2985 60.1352 12.9177 59.7588C12.5413 59.3777 12.0186 59.1473 11.4428 59.1473ZM8.30706 58.102C9.10878 57.2958 10.2161 56.7998 11.4428 56.7998C12.6652 56.7998 13.7725 57.2958 14.5742 58.102C15.3803 58.9036 15.8764 60.0111 15.8764 61.2378C15.8764 62.4603 15.3803 63.5675 14.5742 64.3736C13.7725 65.1753 12.6652 65.6714 11.4428 65.6714C10.216 65.6714 9.10878 65.1753 8.30706 64.3736C7.50097 63.5675 7.00487 62.4603 7.00487 61.2378C7.00487 60.0111 7.50097 58.9036 8.30706 58.102ZM18.6136 64.6839C17.9669 64.6839 17.4399 64.1569 17.4399 63.5102C17.4399 62.8634 17.9669 62.3409 18.6136 62.3409H26.8519C27.4986 62.3409 28.0211 62.8636 28.0211 63.5102C28.0211 64.1569 27.4985 64.6839 26.8519 64.6839H18.6136ZM18.6136 60.1308C17.9669 60.1308 17.4399 59.6078 17.4399 58.9613C17.4399 58.3147 17.9669 57.7875 18.6136 57.7875H26.8519C27.4986 57.7875 28.0211 58.3147 28.0211 58.9613C28.0211 59.608 27.4985 60.1308 26.8519 60.1308H18.6136ZM59.34 66.0523C58.6933 66.0523 58.1661 65.5297 58.1661 64.8831C58.1661 64.2364 58.6933 63.7092 59.34 63.7092H64.345C64.9918 63.7092 65.5143 64.2364 65.5143 64.8831C65.5143 65.5297 64.9916 66.0523 64.345 66.0523H59.34ZM59.34 56.955C58.6933 56.955 58.1661 56.4278 58.1661 55.7812C58.1661 55.1345 58.6933 54.6119 59.34 54.6119H64.345C64.9918 54.6119 65.5143 55.1347 65.5143 55.7812C65.5143 56.4278 64.9916 56.955 64.345 56.955H59.34ZM59.34 61.5037C58.6933 61.5037 58.1661 60.9811 58.1661 60.33C58.1661 59.6833 58.6933 59.1606 59.34 59.1606H64.345C64.9918 59.1606 65.5143 59.6834 65.5143 60.33C65.5143 60.9811 64.9916 61.5037 64.345 61.5037H59.34ZM49.1397 53.0084H53.9321C54.7957 51.7108 55.8897 50.6256 57.1386 49.8416C58.5425 48.9647 60.1416 48.4686 61.8425 48.4686C63.5388 48.4686 65.1378 48.9647 66.5418 49.8416C67.7907 50.6256 68.8847 51.7108 69.7483 53.0084H74.5408V50.2536C74.5408 46.5066 72.9905 44.8677 71.3783 43.1623C69.2968 40.97 67.1352 38.6845 67.1352 32.9177V25.7425H56.5453V30.2602C56.5453 30.9069 56.0225 31.4339 55.376 31.4339C54.725 31.4339 54.2022 30.9069 54.2022 30.2602V17.2162C54.2022 16.5697 54.725 16.047 55.376 16.047H56.8597V9.71328L53.7727 8.69906C53.4936 11.5913 52.2757 17.7034 47.0138 21.3045C46.4822 21.6677 45.7513 21.5303 45.3882 20.9989C45.025 20.463 45.1624 19.7366 45.6938 19.3733C50.5527 16.047 51.3632 10.1164 51.4961 7.95062L49.9325 7.43688C49.215 7.20219 48.4399 6.86563 47.8068 6.33844C47.0625 5.71828 46.5486 4.89 46.5486 3.74734C46.5486 2.71547 46.9696 1.78078 47.6472 1.09875C48.3247 0.420781 49.2638 0 50.2958 0H57.2761C57.9228 0 58.4453 0.527031 58.4453 1.17375C58.4453 1.82047 57.9227 2.34313 57.2761 2.34313H50.2958C49.9105 2.34313 49.5605 2.50234 49.3036 2.75938C49.0466 3.01172 48.8916 3.36172 48.8916 3.74703C48.8916 4.08359 49.0555 4.345 49.2991 4.54437C49.6489 4.83672 50.1627 5.04922 50.6544 5.21312L58.3921 7.75547C58.8749 7.91047 59.2027 8.36234 59.2027 8.86719V16.0469H64.4778V10.7098C64.4778 10.0631 65.0049 9.54063 65.6516 9.54063H75.1258V8.16313L69.3722 2.34328H62.5824C61.9357 2.34328 61.4132 1.82047 61.4132 1.17391C61.4132 0.527344 61.9357 0 62.5822 0H69.8594C70.1607 0 70.4618 0.119687 70.6921 0.354375L77.0702 6.80328C77.3138 7.01578 77.4688 7.33469 77.4688 7.68484V10.7098C77.4688 11.3566 76.9461 11.8836 76.2996 11.8836H66.8253V16.0469H68.3091C68.9558 16.0469 69.4785 16.5697 69.4785 17.2161V32.9175C69.4785 37.7588 71.3121 39.6942 73.0704 41.55C75.0149 43.6052 76.8839 45.5806 76.8839 50.2534V74.6584C76.8839 76.1287 76.2861 77.4664 75.3161 78.4319C74.3505 79.4019 73.0128 79.9998 71.5424 79.9998C50.3311 79.9998 29.1241 79.9998 7.913 79.9998C6.43331 79.9998 5.0869 79.3975 4.11253 78.423C3.13831 77.4486 2.53143 76.102 2.53143 74.6228V68.9711V47.8531C2.53143 46.3692 3.13831 45.027 4.11253 44.0483C5.0869 43.0739 6.43347 42.4714 7.913 42.4714H8.32487C8.32487 38.928 8.32487 35.3892 8.32487 31.8458C8.32487 29.2989 9.36565 26.9781 11.0444 25.2995C12.7228 23.6209 15.0439 22.5802 17.5907 22.5802C20.1417 22.5802 22.4628 23.6209 24.1416 25.2995C25.8202 26.9781 26.861 29.2991 26.861 31.8458V42.4714H27.273C28.3802 42.4714 29.4122 42.808 30.2714 43.3881C31.5116 42.2367 32.9422 41.3109 34.5013 40.6598V33.7548C34.5013 33.108 35.0285 32.5855 35.675 32.5855H38.8153V27.9836H36.5166C33.7307 27.9836 32.4903 30.5437 32.4903 30.5525C32.2024 31.1328 31.5027 31.3675 30.9225 31.0839C30.3422 30.7959 30.1075 30.0962 30.391 29.5159C30.3955 29.507 32.2689 25.6361 36.5166 25.6361H39.9893H43.5458C44.1925 25.6361 44.715 26.1631 44.715 26.8098C44.715 27.4566 44.1924 27.9836 43.5458 27.9836H41.1585V32.5855H44.3033C44.95 32.5855 45.4771 33.1081 45.4771 33.7548V40.6598C46.8677 41.2489 48.1391 42.0284 49.2861 43.0161C49.7069 42.5067 50.1588 42.0328 50.6107 41.5545C52.05 40.0352 53.5382 38.4673 54.0253 35.3802C54.1272 34.7423 54.7252 34.3084 55.363 34.4102C56.0008 34.512 56.4349 35.1102 56.333 35.7478C55.7307 39.5392 53.99 41.3772 52.3025 43.1578C50.6903 44.863 49.1402 46.5017 49.1402 50.2534V53.0084H49.1397ZM74.5411 67.6558H69.7486C68.885 68.9536 67.791 70.0386 66.5421 70.8225C65.1382 71.6995 63.5391 72.1955 61.8428 72.1955C60.1418 72.1955 58.5428 71.6995 57.1389 70.8225C55.89 70.0386 54.796 68.9534 53.9324 67.6558H49.14V74.6584C49.14 75.482 49.4766 76.2308 50.0214 76.7755C50.5661 77.3202 51.3147 77.6569 52.1343 77.6569H71.5428C72.3666 77.6569 73.1152 77.3203 73.6602 76.7755C74.2049 76.2308 74.5416 75.4822 74.5416 74.6584V67.6558H74.5411ZM54.583 55.3516H49.1397V65.3128H54.583C54.9861 65.3128 55.3758 65.5209 55.593 65.8931C56.3193 67.1288 57.2716 68.143 58.3746 68.8339C59.4153 69.485 60.5936 69.8527 61.8427 69.8527C63.0872 69.8527 64.2654 69.485 65.3061 68.8339C66.4002 68.1519 67.348 67.1464 68.0699 65.9241C68.2691 65.5564 68.6546 65.3128 69.0974 65.3128H74.541V55.3516H69.0974C68.6988 55.3516 68.3047 55.1434 68.0875 54.7713C67.3657 53.5356 66.4089 52.5214 65.306 51.8305C64.2652 51.1792 63.0871 50.8116 61.8425 50.8116C60.5935 50.8116 59.4152 51.1792 58.3744 51.8305C57.2803 52.5125 56.3325 53.518 55.6105 54.7403C55.4113 55.1078 55.026 55.3516 54.583 55.3516ZM35.2053 42.9055C33.9785 43.4459 32.8577 44.1855 31.8833 45.0847C32.3705 45.8953 32.6541 46.8388 32.6541 47.8531V49.6114C33.2964 49.08 33.9919 48.6148 34.7272 48.2295C36.3216 47.3969 38.1066 46.9273 39.9891 46.9273C41.7119 46.9273 43.3552 47.3214 44.8389 48.0258C45.5386 48.3578 46.2075 48.7609 46.8277 49.2216C46.9428 47.4322 47.3636 46.0811 47.9571 44.9561C46.9828 44.088 45.8708 43.3705 44.6528 42.8522C43.1825 42.2233 41.588 41.9 39.9891 41.9C38.3457 41.9002 36.7114 42.2411 35.2053 42.9055ZM43.1293 39.907V34.9286H39.9891H36.8442V39.907C37.8586 39.6766 38.9083 39.557 39.9891 39.557C41.0652 39.557 42.1194 39.6811 43.1293 39.907ZM14.8755 30.712H20.3057C20.9569 30.712 21.4794 31.2347 21.4794 31.8812V37.4711H24.5178V31.8459C24.5178 29.9458 23.7383 28.2141 22.4849 26.9561C21.2269 25.7025 19.4949 24.9231 17.5905 24.9231C15.6903 24.9231 13.9586 25.7025 12.7008 26.9561C11.4474 28.2141 10.6677 29.9458 10.6677 31.8459V37.4711H13.706V31.8812C13.7061 31.2345 14.2288 30.712 14.8755 30.712ZM19.1364 33.055H16.0492V37.4711H19.1364V33.055ZM24.5178 42.4714V39.8141C19.9025 39.8141 15.2828 39.8141 10.6677 39.8141V42.4716H24.5178V42.4714ZM30.3111 52.3264V47.8531C30.3111 47.0161 29.97 46.2584 29.4163 45.7091C28.8671 45.1555 28.1052 44.8144 27.2727 44.8144C20.8194 44.8144 14.366 44.8144 7.91284 44.8144C7.08003 44.8144 6.31815 45.1555 5.76878 45.7091C5.21518 46.2584 4.87409 47.0159 4.87409 47.8531V52.3264H30.3111ZM31.7107 77.6569H47.7224C47.1377 76.802 46.7966 75.7656 46.7966 74.6586V70.3622C46.5885 70.5172 46.3713 70.6633 46.1544 70.805C45.1622 71.4428 44.0727 71.93 42.9211 72.2402C42.2966 72.4084 41.6546 72.0364 41.4907 71.4119C41.3222 70.7873 41.6944 70.1452 42.3189 69.9812C43.2357 69.7333 44.0994 69.3434 44.8922 68.8341C45.5921 68.3869 46.2299 67.8508 46.7967 67.2397V52.3177C45.955 51.4098 44.9541 50.6658 43.8425 50.1386C42.6644 49.5806 41.3622 49.2705 39.9893 49.2705C38.4832 49.2705 37.066 49.6425 35.808 50.298C34.5989 50.9314 33.5225 51.8348 32.6542 52.9378V66.6195C33.27 67.3989 33.9832 68.0812 34.776 68.6347C35.6485 69.2416 36.6185 69.702 37.6592 69.9811C38.2838 70.145 38.6558 70.7872 38.4875 71.4117C38.3192 72.0362 37.6771 72.4083 37.0571 72.24C35.7592 71.8945 34.5411 71.3142 33.4428 70.548C33.1725 70.3575 32.9067 70.1583 32.6542 69.9458V74.6231C32.6541 75.7436 32.3042 76.7933 31.7107 77.6569ZM56.5453 23.3994H67.1353V18.39C63.6053 18.39 60.0753 18.39 56.5453 18.39V23.3994Z" fill="#3F88C5"/>
</svg>
