<svg width="80" height="80" viewBox="0 0 80 80" fill="none" xmlns="http://www.w3.org/2000/svg">
<path d="M71.4642 15.3026H73.936C74.7983 15.3026 75.4975 14.6034 75.4975 13.7411C75.4975 12.8789 74.7983 12.1797 73.936 12.1797H68.0024C67.1402 12.1797 66.4409 12.8789 66.4409 13.7411V19.6747C66.4409 20.537 67.1402 21.2362 68.0024 21.2362C68.8647 21.2362 69.5639 20.537 69.5639 19.6747V17.9567C74.3017 24.2995 76.877 31.9956 76.877 40C76.877 60.3342 60.3342 76.877 40 76.877C19.6658 76.877 3.12295 60.3342 3.12295 40C3.12295 19.6658 19.6658 3.12295 40 3.12295C41.5039 3.12295 43.0174 3.2143 44.4989 3.39434C45.3538 3.4977 46.1335 2.88889 46.2375 2.03273C46.3416 1.17673 45.732 0.398176 44.8759 0.294182C43.2697 0.0989975 41.6294 0 40 0C29.3156 0 19.2706 4.16071 11.7157 11.7157C4.16071 19.2706 0 29.3156 0 40C0 50.6844 4.16071 60.7294 11.7157 68.2842C19.2706 75.8393 29.3156 80 40 80C50.6844 80 60.7294 75.8393 68.2842 68.2842C75.8393 60.7294 80 50.6844 80 40C80 30.9839 76.9879 22.3283 71.4642 15.3026Z" fill="#3F88C5"/>
<path d="M16.9377 23.5803C16.2089 23.1191 15.2444 23.3361 14.783 24.0644C11.2183 29.6945 9.64026 36.4653 10.3396 43.1299C11.0493 49.8932 14.0934 56.2712 18.9112 61.0892C24.7254 66.9033 32.3627 69.8105 40.0002 69.8105C47.6377 69.8105 55.2748 66.9035 61.0891 61.0892C72.7176 49.4607 72.7176 30.5397 61.0891 18.9114C56.2787 14.1011 49.9112 11.0581 43.159 10.3429C36.5068 9.63793 29.7433 11.2036 24.1156 14.7508C23.3859 15.2107 23.1675 16.1749 23.6272 16.9044C24.087 17.6341 25.0512 17.8525 25.7808 17.3928C36.3891 10.7066 50 12.2389 58.8808 21.1196C69.2916 31.5304 69.2916 48.47 58.8808 58.8808C48.4701 69.2918 31.5303 69.2918 21.1196 58.8808C12.3616 50.1228 10.8064 36.183 17.4217 25.7352C17.8828 25.0064 17.6662 24.0418 16.9377 23.5803Z" fill="#3F88C5"/>
<path d="M60.2993 41.5867H62.2249C63.0872 41.5867 63.7864 40.8875 63.7864 40.0253C63.7864 39.163 63.0872 38.4638 62.2249 38.4638H60.2993C59.4371 38.4638 58.7379 39.163 58.7379 40.0253C58.7379 40.8875 59.4369 41.5867 60.2993 41.5867Z" fill="#3F88C5"/>
<path d="M16.2136 39.9747C16.2136 40.8369 16.9128 41.5361 17.7751 41.5361H19.7007C20.5629 41.5361 21.2622 40.8369 21.2622 39.9747C21.2622 39.1124 20.5629 38.4132 19.7007 38.4132H17.7751C16.9128 38.4132 16.2136 39.1123 16.2136 39.9747Z" fill="#3F88C5"/>
<path d="M41.5867 19.7006V17.775C41.5867 16.9128 40.8875 16.2136 40.0253 16.2136C39.163 16.2136 38.4638 16.9128 38.4638 17.775V19.7006C38.4638 20.5629 39.163 21.2621 40.0253 21.2621C40.8875 21.2621 41.5867 20.5629 41.5867 19.7006Z" fill="#3F88C5"/>
<path d="M38.4132 60.2993V62.2249C38.4132 63.0872 39.1125 63.7864 39.9747 63.7864C40.837 63.7864 41.5362 63.0872 41.5362 62.2249V60.2993C41.5362 59.4371 40.837 58.7379 39.9747 58.7379C39.1125 58.7379 38.4132 59.4369 38.4132 60.2993Z" fill="#3F88C5"/>
<path d="M32.1733 29.9649C31.5633 29.3553 30.5749 29.3553 29.9649 29.9649C29.3551 30.5746 29.3551 31.5634 29.9649 32.1733L35.2569 37.4653C34.8513 38.221 34.6207 39.084 34.6207 40C34.6207 42.9662 37.0338 45.3793 40 45.3793C42.9662 45.3793 45.3793 42.9662 45.3793 40C45.3793 39.084 45.1485 38.221 44.7431 37.4653L55.421 26.7874C56.0307 26.1777 56.0307 25.1889 55.421 24.579C54.8111 23.9694 53.8226 23.9694 53.2126 24.579L42.5347 35.2569C41.779 34.8513 40.916 34.6207 40 34.6207C39.084 34.6207 38.221 34.8515 37.4652 35.2569L32.1733 29.9649ZM42.2563 40C42.2563 41.2442 41.2442 42.2563 40 42.2563C38.7558 42.2563 37.7437 41.2442 37.7437 40C37.7437 38.7558 38.7558 37.7437 40 37.7437C41.2442 37.7437 42.2563 38.7558 42.2563 40Z" fill="#3F88C5"/>
<path d="M21.1187 21.1186C21.4107 20.8282 21.5776 20.4253 21.5776 20.0147C21.5776 19.604 21.4107 19.2027 21.1187 18.9107C20.8282 18.6204 20.4268 18.4532 20.0147 18.4532C19.604 18.4532 19.2012 18.6203 18.9107 18.9107C18.6205 19.2011 18.4532 19.604 18.4532 20.0147C18.4532 20.4269 18.6203 20.8282 18.9107 21.1186C19.2012 21.4089 19.604 21.5761 20.0147 21.5761C20.4268 21.5761 20.8282 21.4089 21.1187 21.1186Z" fill="#3F88C5"/>
<path d="M50.8163 4.66537C51.2287 4.66537 51.6316 4.4997 51.9219 4.20786C52.2123 3.91742 52.3795 3.51597 52.3795 3.10389C52.3795 2.69323 52.2124 2.29037 51.9219 1.99993C51.6316 1.70965 51.2287 1.54242 50.8163 1.54242C50.4057 1.54242 50.0028 1.7095 49.7125 1.99993C49.4221 2.29037 49.2549 2.69323 49.2549 3.10389C49.2549 3.51612 49.4219 3.91742 49.7125 4.20786C50.0028 4.4997 50.4057 4.66537 50.8163 4.66537Z" fill="#3F88C5"/>
</svg>
