<svg width="123" height="18" viewBox="0 0 123 18" fill="none" xmlns="http://www.w3.org/2000/svg">
<path fill-rule="evenodd" clip-rule="evenodd" d="M1.70783 9.91638L1.04953 10.2964C-0.349843 11.1043 -0.349842 12.4141 1.04953 13.2219L7.79242 17.1146C9.19179 17.9224 11.4606 17.9224 12.86 17.1146L19.6029 13.2219C21.0022 12.4141 21.0022 11.1043 19.6029 10.2964L18.9445 9.91636L13.7746 12.901C12.7314 13.5032 11.4792 13.7519 10.3262 13.7519C9.17313 13.7519 7.92097 13.5032 6.87777 12.901L1.70783 9.91638ZM3.5373 8.86022L7.79241 6.40374C9.19179 5.59589 11.4606 5.59589 12.86 6.40374L17.1151 8.8602L12.86 11.3167C11.4606 12.1245 9.19176 12.1245 7.79238 11.3167L3.5373 8.86022Z" fill="black"/>
<path d="M7.79241 0.605893C9.19179 -0.201964 11.4606 -0.201965 12.86 0.605892L19.6029 4.49856C21.0022 5.30642 21.0022 6.61621 19.6029 7.42407L12.86 11.3167C11.4606 12.1246 9.19179 12.1246 7.79242 11.3167L1.04953 7.42407C-0.349842 6.61621 -0.349843 5.30642 1.04953 4.49856L7.79241 0.605893Z" fill="black"/>
<path d="M30.6742 6.0958H32.6269L34.4982 11.6726L36.0766 6.0958H37.9967L35.4583 14.1549H33.5707L31.6017 8.36294L29.6816 14.1549H27.7452L25.1742 6.0958H27.192L28.8029 11.6726L30.6742 6.0958Z" fill="black"/>
<path d="M40.5634 9.24H44.4525C44.4308 8.73252 44.2518 8.30777 43.9155 7.96577C43.5901 7.62377 43.1182 7.45277 42.4998 7.45277C41.9357 7.45277 41.4801 7.63481 41.1329 7.99887C40.7858 8.3519 40.596 8.76561 40.5634 9.24ZM44.664 11.3417L46.2587 11.8547C46.0309 12.5938 45.6024 13.2061 44.9732 13.6915C44.3548 14.1659 43.5901 14.4031 42.6788 14.4031C41.5506 14.4031 40.5905 14.0115 39.7986 13.2282C39.0176 12.4449 38.627 11.3968 38.627 10.084C38.627 8.84836 39.0067 7.83339 39.7661 7.03906C40.5363 6.24474 41.4421 5.84758 42.4835 5.84758C43.6985 5.84758 44.6477 6.22819 45.3312 6.98942C46.0146 7.73961 46.3563 8.75458 46.3563 10.0343C46.3563 10.3763 46.3401 10.5804 46.3075 10.6466H40.5146C40.5363 11.2534 40.7533 11.7554 41.1655 12.1525C41.5886 12.5497 42.093 12.7483 42.6788 12.7483C43.6985 12.7483 44.3603 12.2794 44.664 11.3417Z" fill="black"/>
<path d="M49.9989 14.1549H48.1601V2.17383H50.0152V7.08871C50.2104 6.74671 50.5305 6.45987 50.9752 6.22819C51.42 5.99651 51.9299 5.88067 52.5048 5.88067C53.6547 5.88067 54.5497 6.27784 55.1898 7.07216C55.8406 7.85545 56.1661 8.85939 56.1661 10.084C56.1661 11.3306 55.8244 12.3566 55.1409 13.162C54.4683 13.9563 53.5679 14.3535 52.4397 14.3535C51.3115 14.3535 50.4979 13.9287 49.9989 13.0792V14.1549ZM53.6602 11.9705C54.0615 11.5071 54.2622 10.8838 54.2622 10.1005C54.2622 9.31723 54.067 8.70494 53.6764 8.26365C53.2859 7.81132 52.7706 7.58516 52.1306 7.58516C51.5122 7.58516 51.0024 7.81132 50.601 8.26365C50.1996 8.70494 49.9989 9.31723 49.9989 10.1005C49.9989 10.8728 50.1996 11.4906 50.601 11.9539C51.0024 12.4173 51.5122 12.649 52.1306 12.649C52.7598 12.649 53.2696 12.4228 53.6602 11.9705Z" fill="black"/>
<path d="M57.281 11.9705L58.9245 11.5071C58.957 11.8933 59.1143 12.2187 59.3964 12.4835C59.6784 12.7483 60.0581 12.8807 60.5354 12.8807C60.9043 12.8807 61.1918 12.7924 61.3979 12.6159C61.6148 12.4394 61.7233 12.2187 61.7233 11.9539C61.7233 11.4906 61.4141 11.1927 60.7958 11.0603L59.6242 10.7956C58.9408 10.6411 58.4146 10.3543 58.0458 9.93504C57.6769 9.51581 57.4925 9.01936 57.4925 8.44568C57.4925 7.73961 57.7746 7.13284 58.3387 6.62535C58.9028 6.10684 59.5916 5.84758 60.4053 5.84758C60.926 5.84758 61.387 5.9248 61.7884 6.07925C62.1898 6.23371 62.499 6.4378 62.7159 6.69155C62.9437 6.93426 63.1173 7.17145 63.2366 7.40313C63.356 7.63481 63.4319 7.86648 63.4644 8.09816L61.8698 8.56152C61.8264 8.25261 61.6853 7.97681 61.4467 7.7341C61.2189 7.48035 60.8717 7.35348 60.4053 7.35348C60.0798 7.35348 59.8086 7.44726 59.5916 7.63481C59.3747 7.81132 59.2662 8.02645 59.2662 8.28019C59.2662 8.73252 59.532 9.01384 60.0635 9.12416L61.2677 9.37239C62.0054 9.53787 62.5695 9.83575 62.96 10.266C63.3505 10.6963 63.5458 11.2148 63.5458 11.8216C63.5458 12.4945 63.28 13.0958 62.7485 13.6253C62.2278 14.1438 61.4955 14.4031 60.5517 14.4031C60.0093 14.4031 59.5211 14.3204 59.0872 14.1549C58.6641 13.9894 58.3278 13.7798 58.0783 13.526C57.8397 13.2613 57.6498 13.002 57.5088 12.7483C57.3786 12.4835 57.3027 12.2242 57.281 11.9705Z" fill="black"/>
<path d="M67.8096 3.63009V6.0958H69.4531V7.80029H67.8096V11.5402C67.8096 11.8933 67.891 12.1525 68.0537 12.318C68.2164 12.4725 68.4714 12.5497 68.8185 12.5497C69.0355 12.5497 69.2524 12.5276 69.4694 12.4835V14.0721C69.1874 14.1935 68.8022 14.2542 68.3141 14.2542C67.5764 14.2542 66.996 14.0446 66.5729 13.6253C66.1499 13.1951 65.9383 12.6048 65.9383 11.8547V7.80029H64.4738V6.0958H64.8806C65.282 6.0958 65.5858 5.97996 65.7919 5.74829C65.998 5.51661 66.1011 5.21322 66.1011 4.83812V3.63009H67.8096Z" fill="black"/>
<path d="M73.217 12.0036C73.6509 12.4559 74.177 12.6821 74.7954 12.6821C75.4137 12.6821 75.9344 12.4559 76.3575 12.0036C76.7915 11.5513 77.0084 10.9224 77.0084 10.1171C77.0084 9.32274 76.7915 8.70494 76.3575 8.26365C75.9344 7.81132 75.4137 7.58516 74.7954 7.58516C74.177 7.58516 73.6509 7.81132 73.217 8.26365C72.7939 8.70494 72.5824 9.32274 72.5824 10.1171C72.5824 10.9114 72.7939 11.5402 73.217 12.0036ZM74.7954 5.84758C75.9887 5.84758 76.9704 6.25025 77.7407 7.05561C78.5217 7.86097 78.9123 8.88145 78.9123 10.1171C78.9123 11.3527 78.5217 12.3787 77.7407 13.1951C76.9704 14.0004 75.9887 14.4031 74.7954 14.4031C73.6129 14.4031 72.6312 14.0004 71.8501 13.1951C71.0799 12.3787 70.6948 11.3527 70.6948 10.1171C70.6948 8.88145 71.0799 7.86097 71.8501 7.05561C72.6312 6.25025 73.6129 5.84758 74.7954 5.84758Z" fill="black"/>
<path d="M84.1861 7.61826C83.5786 7.61826 83.0633 7.84442 82.6403 8.29674C82.2172 8.73803 82.0056 9.34481 82.0056 10.1171C82.0056 10.9004 82.2172 11.5182 82.6403 11.9705C83.0742 12.4228 83.6003 12.649 84.2187 12.649C84.7719 12.649 85.2113 12.5 85.5367 12.2022C85.873 11.8933 86.0954 11.5457 86.2039 11.1596L87.8637 11.7719C87.6467 12.489 87.2236 13.1068 86.5944 13.6253C85.9761 14.1438 85.1842 14.4031 84.2187 14.4031C83.0579 14.4031 82.0816 13.9949 81.2897 13.1785C80.5086 12.3621 80.1181 11.3417 80.1181 10.1171C80.1181 8.88145 80.5032 7.86097 81.2734 7.05561C82.0545 6.25025 83.02 5.84758 84.1699 5.84758C85.157 5.84758 85.9598 6.10684 86.5781 6.62535C87.2073 7.14387 87.6141 7.76719 87.7986 8.49532L86.1063 9.12416C85.9978 8.70494 85.7862 8.3519 85.4716 8.06506C85.1679 7.76719 84.7394 7.61826 84.1861 7.61826Z" fill="black"/>
<path d="M96.9601 6.0958L93.7056 9.50478L97.0252 14.1549H94.7145L92.3876 10.8617L91.4113 11.9043V14.1549H89.54V2.17383H91.4113V9.35584L94.4542 6.0958H96.9601Z" fill="black"/>
<path d="M99.4042 11.2193L100.313 10.8929C100.349 11.1757 100.47 11.4114 100.677 11.6C100.884 11.7813 101.162 11.872 101.512 11.872C101.783 11.872 101.996 11.8067 102.153 11.6762C102.31 11.5384 102.389 11.3716 102.389 11.1757C102.389 10.8276 102.168 10.6028 101.725 10.5013L100.848 10.3054C100.449 10.2184 100.135 10.0444 99.9069 9.78326C99.6787 9.52218 99.5646 9.20669 99.5646 8.83682C99.5646 8.38716 99.7429 7.99916 100.099 7.6728C100.463 7.34643 100.895 7.18325 101.394 7.18325C101.722 7.18325 102.014 7.23402 102.271 7.33556C102.528 7.42984 102.727 7.55676 102.87 7.71631C103.013 7.87586 103.12 8.02454 103.191 8.16234C103.262 8.30013 103.316 8.44156 103.351 8.58661L102.464 8.92385C102.449 8.83682 102.424 8.75341 102.389 8.67364C102.353 8.58661 102.296 8.49232 102.218 8.39079C102.146 8.28926 102.039 8.20948 101.897 8.15146C101.754 8.08619 101.586 8.05355 101.394 8.05355C101.144 8.05355 100.937 8.12245 100.773 8.26025C100.617 8.39804 100.538 8.56122 100.538 8.74979C100.538 9.0834 100.734 9.29372 101.126 9.38075L101.961 9.56569C102.417 9.66722 102.767 9.85579 103.009 10.1314C103.259 10.3997 103.384 10.7297 103.384 11.1213C103.384 11.5347 103.216 11.9082 102.881 12.2419C102.553 12.5755 102.093 12.7423 101.501 12.7423C100.866 12.7423 100.37 12.5827 100.014 12.2636C99.6573 11.9372 99.4541 11.5891 99.4042 11.2193Z" fill="black"/>
<path d="M106.07 5.69287V7.34643H107.183V8.27112H106.07V10.9908C106.07 11.2374 106.124 11.4187 106.231 11.5347C106.345 11.6508 106.53 11.7088 106.787 11.7088C106.937 11.7088 107.068 11.6943 107.183 11.6653V12.5356C107.011 12.6008 106.783 12.6335 106.498 12.6335C106.056 12.6335 105.706 12.5029 105.45 12.2419C105.193 11.9808 105.065 11.6145 105.065 11.1431V8.27112H104.08V7.34643H104.359C104.622 7.34643 104.819 7.27391 104.947 7.12886C105.082 6.97656 105.15 6.78074 105.15 6.54141V5.69287H106.07Z" fill="black"/>
<path d="M109.532 11.3389C109.845 11.6653 110.227 11.8285 110.676 11.8285C111.125 11.8285 111.503 11.6653 111.81 11.3389C112.124 11.0053 112.281 10.5448 112.281 9.95732C112.281 9.37713 112.124 8.92385 111.81 8.59749C111.503 8.26387 111.125 8.09706 110.676 8.09706C110.227 8.09706 109.845 8.26387 109.532 8.59749C109.225 8.92385 109.072 9.37713 109.072 9.95732C109.072 10.5448 109.225 11.0053 109.532 11.3389ZM108.783 7.9774C109.282 7.44797 109.913 7.18325 110.676 7.18325C111.439 7.18325 112.067 7.44797 112.559 7.9774C113.058 8.49958 113.308 9.15955 113.308 9.95732C113.308 10.7623 113.062 11.4296 112.57 11.959C112.077 12.4812 111.446 12.7423 110.676 12.7423C109.906 12.7423 109.275 12.4812 108.783 11.959C108.291 11.4296 108.045 10.7623 108.045 9.95732C108.045 9.15955 108.291 8.49958 108.783 7.9774Z" fill="black"/>
<path d="M117.45 7.29204V8.37991C117.301 8.35815 117.154 8.34727 117.012 8.34727C116.07 8.34727 115.6 8.88396 115.6 9.95732V12.5791H114.594V7.34643H115.578V8.26025C115.892 7.59302 116.406 7.2594 117.119 7.2594C117.233 7.2594 117.343 7.27028 117.45 7.29204Z" fill="black"/>
<path d="M119.122 9.42427H121.936C121.921 9.03263 121.793 8.71353 121.551 8.46694C121.308 8.2131 120.966 8.08619 120.524 8.08619C120.124 8.08619 119.796 8.22036 119.539 8.4887C119.283 8.74979 119.144 9.06164 119.122 9.42427ZM122.085 10.7841L122.952 11.0887C122.802 11.5746 122.524 11.9735 122.117 12.2854C121.711 12.59 121.219 12.7423 120.641 12.7423C119.921 12.7423 119.308 12.4921 118.801 11.9916C118.302 11.484 118.053 10.8022 118.053 9.94644C118.053 9.14867 118.295 8.4887 118.78 7.96652C119.265 7.44434 119.843 7.18325 120.513 7.18325C121.29 7.18325 121.896 7.43346 122.331 7.93388C122.766 8.42705 122.984 9.09065 122.984 9.92469C122.984 10.0552 122.977 10.164 122.963 10.251H119.09C119.097 10.7152 119.247 11.096 119.539 11.3933C119.839 11.6907 120.206 11.8393 120.641 11.8393C121.376 11.8393 121.857 11.4876 122.085 10.7841Z" fill="black"/>
</svg>
